<svg width="110" height="48" viewBox="0 0 110 48" fill="none" xmlns="http://www.w3.org/2000/svg">
<path d="M75.1012 27.8716H70.8234L51.9411 18.0568C48.0227 16.02 45.8239 12.7455 45.9009 9.05848C45.9498 6.69412 46.8847 4.4353 48.5189 2.73301C50.1153 1.04649 52.3118 0.0638187 54.6276 0H54.8415C56.0056 0.00091925 57.1578 0.235586 58.2303 0.690164C59.3029 1.14474 60.2742 1.81008 61.0871 2.64709C61.9489 3.52042 62.6306 4.55606 63.0931 5.69463C63.5555 6.8332 63.7897 8.05226 63.7821 9.28194V10.2617H61.8656V9.28194C61.8769 7.32541 61.1172 5.44387 59.7524 4.04798C59.1122 3.39135 58.3482 2.8693 57.5051 2.51223C56.6619 2.15515 55.7565 1.97015 54.8415 1.9681H54.6704C52.8355 2.04541 51.1006 2.82962 49.8261 4.15793C48.5516 5.48624 47.8353 7.25664 47.8259 9.10149C47.7318 13.0635 50.9059 15.3066 52.8053 16.295L75.1012 27.8716Z" fill="#060017"/>
<path d="M50.9572 20.8331L38.0896 27.872H34.0171L48.8696 19.7502L50.9572 20.8331Z" fill="#060017"/>
<path d="M105.226 48H3.90136C2.86814 48 1.8771 47.5883 1.14569 46.8552C0.414291 46.1221 0.00226584 45.1274 0 44.0895V30.9229C0.00226584 29.885 0.414291 28.8904 1.14569 28.1573C1.8771 27.4242 2.86814 27.0124 3.90136 27.0125H105.226C106.258 27.0125 107.248 27.4245 107.978 28.1578C108.708 28.8912 109.118 29.8858 109.118 30.9229V44.0895C109.118 45.1266 108.708 46.1213 107.978 46.8546C107.248 47.588 106.258 48 105.226 48ZM3.90136 28.7313C3.32195 28.7313 2.76617 28.962 2.35567 29.3727C1.94516 29.7835 1.71339 30.3409 1.71112 30.9229V44.0895C1.71339 44.6716 1.94516 45.229 2.35567 45.6398C2.76617 46.0505 3.32195 46.2811 3.90136 46.2811H105.226C105.804 46.2811 106.359 46.0502 106.768 45.6392C107.177 45.2282 107.407 44.6708 107.407 44.0895V30.9229C107.407 30.3417 107.177 29.7842 106.768 29.3732C106.359 28.9622 105.804 28.7313 105.226 28.7313H3.90136Z" fill="#060017"/>
<path d="M11.0298 30.8113C13.3569 30.8113 14.8798 32.109 15.0766 34.249H13.7676C13.6221 32.7794 12.6297 31.9457 11.0127 31.9457C9.1989 31.9457 8.00966 32.8911 8.00966 34.3522C8.00966 35.4952 8.67703 36.2171 10.0203 36.5609L12.2361 37.1023C14.2553 37.5922 15.2991 38.7525 15.2991 40.5401C15.2991 42.7746 13.5879 44.2099 10.9015 44.2099C8.40322 44.2099 6.70919 42.8864 6.54663 40.7722H7.85567C7.92411 42.1301 9.11337 43.0153 10.8758 43.0153C12.7666 43.0153 13.973 42.0957 13.973 40.6089C13.973 39.4486 13.3313 38.6923 11.9453 38.3657L9.76355 37.8243C7.74443 37.3344 6.68355 36.1828 6.68355 34.3865C6.70922 32.2379 8.43747 30.8113 11.0298 30.8113Z" fill="#060017"/>
<path d="M18.2507 31.0432H27.4822V32.2378H23.5038V43.9864H22.212V32.2378H18.2507V31.0432Z" fill="#060017"/>
<path d="M38.9296 31.0432L35.7812 36.6295C35.5416 37.085 35.5416 37.085 35.3876 37.403C35.2593 37.1194 35.148 36.9045 35.0026 36.6295L29.8692 27.8718H28.4148L34.7117 38.5805V47.1749H36.0036V38.5805L40.3242 31.0432H38.9296Z" fill="#060017"/>
<path d="M45.5517 42.8003H51.4893V43.9864H44.2683V31.0432H45.5602L45.5517 42.8003Z" fill="#060017"/>
<path d="M60.2931 44.2099C56.6826 44.2099 54.1587 41.4425 54.1587 37.5149C54.1587 33.5873 56.7254 30.8113 60.2931 30.8113C63.8608 30.8113 66.436 33.5787 66.436 37.5149C66.436 41.4511 63.895 44.2099 60.2931 44.2099ZM60.2931 32.0746C57.4526 32.0746 55.5105 34.2834 55.5105 37.5149C55.5105 40.7464 57.4526 42.9637 60.2931 42.9637C63.1335 42.9637 65.1013 40.7378 65.1013 37.5149C65.1013 34.292 63.1421 32.0746 60.2931 32.0746Z" fill="#060017"/>
<path d="M70.9532 43.9864V31.0432H75.7615C78.3282 31.0432 79.9538 32.4871 79.9538 34.7904C80.0164 35.6078 79.7861 36.4208 79.3044 37.0827C78.8228 37.7446 78.1216 38.2118 77.3272 38.4L80.0821 43.9864H78.6362L76.0096 38.6235H72.2452V43.9864H70.9532ZM72.2452 37.4461H75.7957C77.5753 37.4461 78.6191 36.4663 78.6191 34.8677C78.6191 33.2692 77.524 32.2894 75.7615 32.2894H72.2452V37.4461Z" fill="#060017"/>
<path d="M85.8829 43.9864L90.6227 31.0432H92.2226L97.0138 43.9864H95.662L94.4043 40.5486H88.4582L87.2005 43.9864H85.8829ZM88.8603 39.4142H93.9936L91.581 32.8738C91.5296 32.6933 91.4355 32.4699 91.4184 32.3496C91.381 32.5291 91.3265 32.7047 91.2558 32.8738L88.8603 39.4142Z" fill="#060017"/>
<path d="M102.267 43.9864H100.966V31.0432H102.267V43.9864Z" fill="#060017"/>
<path d="M83.7268 42.4995H82.2382V43.9949H83.7268V42.4995Z" fill="#060017"/>
</svg>
